<?xml version="1.0" encoding="UTF-8"?>
<svg version="1.1" xmlns="http://www.w3.org/2000/svg" width="64" height="64">
<path d="M0 0 C21.12 0 42.24 0 64 0 C64 21.12 64 42.24 64 64 C42.88 64 21.76 64 0 64 C0 42.88 0 21.76 0 0 Z " fill="#121212" transform="translate(0,0)"/>
<path d="M0 0 C0.66 0 1.32 0 2 0 C3.65625 2.484375 3.65625 2.484375 5.5 5.75 C6.1084375 6.81734375 6.716875 7.8846875 7.34375 8.984375 C8.61709468 11.30282334 9.84524633 13.62120745 11 16 C13.0894988 12.8657518 14.56445886 9.73890554 16.125 6.3125 C16.66382812 5.13300781 17.20265625 3.95351563 17.7578125 2.73828125 C18.16773437 1.83464844 18.57765625 0.93101563 19 0 C19.66 0 20.32 0 21 0 C23.13892158 3.82540815 25.27509443 7.65233356 27.40869141 11.48071289 C28.13546898 12.78387224 28.8630067 14.08660795 29.59130859 15.38891602 C30.63577442 17.25687564 31.67753026 19.12632325 32.71875 20.99609375 C33.34716797 22.12200928 33.97558594 23.2479248 34.62304688 24.40795898 C36 27 36 27 36 28 C34.56344146 28.08131463 33.1255517 28.13933559 31.6875 28.1875 C30.48673828 28.23970703 30.48673828 28.23970703 29.26171875 28.29296875 C27 28 27 28 25.4375 26.875 C23.47582901 24.3162987 21.9084715 21.61297829 20.3125 18.8125 C19.68988281 17.72582031 19.06726563 16.63914062 18.42578125 15.51953125 C17.95527344 14.68808594 17.48476563 13.85664062 17 13 C14.7987197 16.30192045 14.23131346 18.06767118 14 22 C15.32429273 25.31805142 15.32429273 25.31805142 17 28 C15.56344146 28.08131463 14.1255517 28.13933559 12.6875 28.1875 C11.48673828 28.23970703 11.48673828 28.23970703 10.26171875 28.29296875 C7.40355015 27.92273966 6.75318515 27.25269601 5 25 C3.93758556 23.38069657 2.91912472 21.73201519 1.9375 20.0625 C1.43089844 19.20785156 0.92429687 18.35320313 0.40234375 17.47265625 C-2.34789482 12.62334981 -3.3756057 10.61705661 -2 5 C-1.37774395 3.31624835 -0.72455635 1.64232772 0 0 Z " fill="#F4F4F4" transform="translate(20,19)"/>
<path d="M0 0 C4.95 0 9.9 0 15 0 C11.63784247 5.60359589 11.63784247 5.60359589 8.5625 8.0625 C6.46658546 9.77733917 4.54606664 11.45393336 2.625 13.375 C2.08875 13.91125 1.5525 14.4475 1 15 C0.67 15 0.34 15 0 15 C0 10.05 0 5.1 0 0 Z " fill="#FCFCFC" transform="translate(0,0)"/>
<path d="M0 0 C3.05740483 2.75166435 4.84750161 5.01864192 6 9 C5.67 9.66 5.34 10.32 5 11 C4.34 11 3.68 11 3 11 C2.34 12.32 1.68 13.64 1 15 C-1.0625 12.875 -1.0625 12.875 -3 10 C-2.84448013 6.18976311 -1.89789949 3.28969244 0 0 Z " fill="#1C1C1C" transform="translate(36,31)"/>
<path d="M0 0 C2.74277578 3.19990508 4.6302836 6.00499382 6 10 C3.36 10 0.72 10 -2 10 C-3.39195915 5.82412255 -1.82323219 3.86525224 0 0 Z " fill="#EDEDED" transform="translate(12,37)"/>
</svg>
