<svg width="37" height="37" viewBox="0 0 37 37" fill="none" xmlns="http://www.w3.org/2000/svg">
<path d="M0.12919 37L0 36.7956C1.24884 33.3886 2.45461 29.8794 3.61732 26.268C4.78003 22.6565 5.96427 18.9429 7.17004 15.1271C7.64374 13.628 8.20356 11.7541 8.84951 9.50553C9.53852 7.25691 10.3137 4.63352 11.1749 1.63536H11.3041C11.6056 1.97606 11.9501 2.14641 12.3376 2.14641C13.242 2.14641 14.2324 1.49908 15.309 0.204421L15.4382 0L15.3736 0.204421H15.309C15.0076 1.15838 14.4477 2.82781 13.6295 5.21271C12.8544 7.52947 11.8424 10.5958 10.5936 14.4116C14.1248 5.5534 17.0746 1.12431 19.4431 1.12431C21.0364 1.12431 21.8331 2.31676 21.8331 4.70166C21.8331 6.67772 21.2948 9.57366 20.2182 13.3895C21.1226 11.4134 21.8762 9.81216 22.479 8.58564C23.0819 7.29098 23.5341 6.40516 23.8355 5.92818C25.6442 2.86188 27.2591 1.32873 28.6802 1.32873C30.5319 1.32873 31.4577 2.75967 31.4577 5.62155C31.4577 7.73389 31.1132 9.8803 30.4242 12.0608C29.7783 14.1731 29.0031 16.3195 28.0988 18.5C27.1945 20.6123 26.3763 22.7247 25.6442 24.837C25.2997 25.9273 24.9767 27.0856 24.6753 28.3122C24.4169 29.4705 24.2877 30.5267 24.2877 31.4807C24.2877 32.3665 24.46 33.116 24.8045 33.7293C25.149 34.2744 25.7303 34.547 26.5485 34.547C27.1514 34.547 27.7328 34.3766 28.2926 34.0359C28.8524 33.6271 29.3476 33.1842 29.7783 32.7072C30.941 31.2762 31.9314 29.6068 32.7496 27.6989C33.5679 25.791 34.2784 23.8831 34.8813 21.9751C35.4842 20.0672 36.0225 18.4659 36.4962 17.1713C36.6253 16.8306 36.7545 16.7284 36.8837 16.8646C37.0129 16.9328 37.0344 17.1372 36.9483 17.4779C36.0871 20.3398 35.1397 23.2698 34.1061 26.268C33.0726 29.2661 31.7592 31.651 30.1658 33.4227C29.606 34.0359 28.9816 34.547 28.2926 34.9558C27.6466 35.3646 26.9576 35.5691 26.2256 35.5691C24.7183 35.5691 23.6202 35.058 22.9312 34.0359C22.2853 32.9457 21.9623 31.5488 21.9623 29.8453C21.9623 28.6188 22.1345 27.1197 22.479 25.3481C22.7374 24.1215 23.0604 22.8269 23.448 21.4641C23.8786 20.0331 24.4169 18.5 25.0628 16.8646C27.3452 10.8683 28.4864 6.98435 28.4864 5.21271C28.4864 4.05433 28.1634 3.47514 27.5175 3.47514C25.7088 3.47514 23.0819 7.9383 19.6369 16.8646C18.5603 19.5902 17.5268 22.4521 16.5363 25.4503C15.5459 28.3803 14.5554 31.4466 13.5649 34.6492H13.4358C13.1343 34.5129 12.8544 34.4107 12.596 34.3425C12.3376 34.2744 12.1008 34.2403 11.8855 34.2403C10.5936 34.2403 9.81844 34.9558 9.56006 36.3867L9.36627 36.1823C11.0027 31.6851 12.2946 28.1077 13.242 25.4503C14.1894 22.7928 14.8138 21.0552 15.1152 20.2376C17.8713 11.9245 19.2493 6.60958 19.2493 4.29282C19.2493 3.27072 19.0125 2.75967 18.5388 2.75967C16.7732 2.75967 14.1248 7.32505 10.5936 16.4558C8.26816 22.384 6.17959 28.4825 4.32786 34.7514L4.19867 34.8536C3.63885 34.5129 3.14362 34.3425 2.71299 34.3425C1.98091 34.3425 1.37803 34.7855 0.90433 35.6713C0.473696 36.5571 0.215317 37 0.12919 37Z" fill="white"/>
</svg>
